<svg viewBox="0 0 18 18" xmlns="http://www.w3.org/2000/svg" xmlns:xlink="http://www.w3.org/1999/xlink" width="18.000000" height="18.000000" fill="none">
	<rect id="formkit:date" width="18.000000" height="18.000000" x="0.000000" y="0.000000" fill="rgb(255,255,255)" fill-opacity="0" />
	<path id="Vector" d="M16.3125 18L1.6875 18C0.75375 18 0 17.2463 0 16.3125L0 2.8125C0 1.87875 0.75375 1.125 1.6875 1.125L16.3125 1.125C17.2463 1.125 18 1.87875 18 2.8125L18 16.3125C18 17.2463 17.2463 18 16.3125 18ZM1.6875 2.25C1.3725 2.25 1.125 2.4975 1.125 2.8125L1.125 16.3125C1.125 16.6275 1.3725 16.875 1.6875 16.875L16.3125 16.875C16.6275 16.875 16.875 16.6275 16.875 16.3125L16.875 2.8125C16.875 2.4975 16.6275 2.25 16.3125 2.25L1.6875 2.25Z" fill="rgb(252.875,252.875,252.875)" fill-rule="nonzero" />
	<path id="Vector" d="M5.0625 4.5C4.7475 4.5 4.5 4.2525 4.5 3.9375L4.5 0.5625C4.5 0.2475 4.7475 0 5.0625 0C5.3775 0 5.625 0.2475 5.625 0.5625L5.625 3.9375C5.625 4.2525 5.3775 4.5 5.0625 4.5ZM12.9375 4.5C12.6225 4.5 12.375 4.2525 12.375 3.9375L12.375 0.5625C12.375 0.2475 12.6225 0 12.9375 0C13.2525 0 13.5 0.2475 13.5 0.5625L13.5 3.9375C13.5 4.2525 13.2525 4.5 12.9375 4.5ZM17.4375 6.75L0.5625 6.75C0.2475 6.75 0 6.5025 0 6.1875C0 5.8725 0.2475 5.625 0.5625 5.625L17.4375 5.625C17.7525 5.625 18 5.8725 18 6.1875C18 6.5025 17.7525 6.75 17.4375 6.75Z" fill="rgb(252.875,252.875,252.875)" fill-rule="nonzero" />
</svg>
